<svg xmlns="http://www.w3.org/2000/svg">
  <symbol id="twitter-icon" width="64" height="64" viewBox="0 0 64 64">
    <rect width="64" height="64" rx="20" fill="#7156FD" fill-opacity="0.2" />
    <path
      d="M47.7987 21.7535C45.7121 22.4896 45.4542 22.3961 46.4506 21.2745C47.2111 20.5254 47.7921 19.6148 48.1503 18.6106C48.1503 18.5288 47.7869 18.6106 47.3649 18.8793C46.6717 19.2214 45.9501 19.5029 45.2081 19.7206L43.8835 20.1412L42.7112 19.3233C42.061 18.8806 41.3607 18.5159 40.6247 18.2367C39.2072 17.892 37.7237 17.9243 36.3226 18.3302C34.8531 18.8333 33.5897 19.8028 32.7259 21.0901C31.862 22.3774 31.4455 23.9115 31.54 25.4573L31.6103 26.6257L30.4381 26.4855C25.9937 25.9366 21.8643 23.9116 18.7159 20.7371L17.0866 19.1247L16.6763 20.2931C16.2255 21.5351 16.1292 22.8775 16.3983 24.1708C16.6673 25.4642 17.2911 26.6577 18.2002 27.6188C19.1848 28.6586 18.9621 28.7871 17.2624 28.1913C16.6763 27.9927 16.1605 27.8408 16.0902 27.9226C16.1612 29.0718 16.46 30.1956 16.9693 31.229C17.7546 32.5937 18.9243 33.6986 20.3336 34.407L21.5058 34.9678H20.0757C18.7042 34.9678 18.6573 34.9678 18.798 35.517C19.2307 36.4808 19.8642 37.3419 20.6565 38.0429C21.4488 38.7439 22.3816 39.2689 23.3931 39.5829L24.917 40.097L23.5924 40.8915C21.5813 42.0339 19.3184 42.664 17.0045 42.7258C16.3301 42.6925 15.6546 42.7594 15 42.9245C16.4554 43.86 18.0332 44.5912 19.6889 45.0976C22.3604 45.9114 25.1694 46.1787 27.9472 45.8836C30.725 45.5884 33.4143 44.7369 35.8538 43.3801C39.489 41.0665 42.3467 37.7217 44.0593 33.7761C44.9907 31.4016 45.5558 28.9002 45.7356 26.3569C45.7356 25.1886 45.8059 25.06 47.1774 23.7047C47.8046 23.1195 48.381 22.4824 48.9005 21.8003C49.1115 21.3329 49.0881 21.3329 47.7987 21.7535Z"
      fill="#01FFC2"
    />
    <defs>
      <clipPath id="clip0_0_3597">
        <rect width="64" height="64" fill="white" />
      </clipPath>
    </defs>
  </symbol>

  <symbol
    id="discord-icon"
    width="64"
    height="64"
    viewBox="0 0 64 64"
    fill="none"
  >
    <rect width="64" height="64" rx="20" fill="#7156FD" fill-opacity="0.2" />
    <path
      d="M45.3221 20.321C42.9638 19.2467 40.4349 18.4552 37.7908 18.0019C37.7427 17.9932 37.6946 18.015 37.6698 18.0587C37.3445 18.6331 36.9843 19.3823 36.732 19.9712C33.8881 19.5485 31.0588 19.5485 28.2732 19.9712C28.0209 19.3692 27.6476 18.6331 27.3209 18.0587C27.2961 18.0165 27.248 17.9946 27.1998 18.0019C24.5572 18.4538 22.0283 19.2453 19.6686 20.321C19.6482 20.3298 19.6307 20.3444 19.619 20.3633C14.8223 27.4782 13.5083 34.4182 14.1529 41.2721C14.1558 41.3056 14.1748 41.3377 14.201 41.3581C17.3658 43.6655 20.4314 45.0664 23.4401 45.9949C23.4882 46.0095 23.5392 45.992 23.5699 45.9526C24.2816 44.9877 24.916 43.9702 25.4599 42.9003C25.492 42.8376 25.4614 42.7633 25.3958 42.7385C24.3895 42.3595 23.4313 41.8974 22.5096 41.3727C22.4367 41.3304 22.4308 41.2269 22.4979 41.1773C22.6919 41.033 22.8859 40.8829 23.0711 40.7313C23.1046 40.7036 23.1513 40.6977 23.1907 40.7152C29.246 43.46 35.8015 43.46 41.7854 40.7152C41.8248 40.6963 41.8715 40.7021 41.9064 40.7298C42.0917 40.8814 42.2857 41.033 42.4811 41.1773C42.5482 41.2269 42.5438 41.3304 42.4709 41.3727C41.5492 41.9076 40.591 42.3595 39.5832 42.737C39.5176 42.7618 39.4884 42.8376 39.5205 42.9003C40.0761 43.9687 40.7106 44.9862 41.4091 45.9512C41.4383 45.992 41.4908 46.0095 41.5389 45.9949C44.5622 45.0664 47.6278 43.6655 50.7925 41.3581C50.8203 41.3377 50.8378 41.3071 50.8407 41.2735C51.6122 33.3496 49.5485 26.4666 45.3702 20.3648C45.3599 20.3444 45.3425 20.3298 45.3221 20.321ZM26.3642 37.0988C24.5411 37.0988 23.039 35.4371 23.039 33.3963C23.039 31.3556 24.512 29.6939 26.3642 29.6939C28.2309 29.6939 29.7185 31.3702 29.6894 33.3963C29.6894 35.4371 28.2163 37.0988 26.3642 37.0988ZM38.6586 37.0988C36.8356 37.0988 35.3334 35.4371 35.3334 33.3963C35.3334 31.3556 36.8064 29.6939 38.6586 29.6939C40.5254 29.6939 42.0129 31.3702 41.9838 33.3963C41.9838 35.4371 40.5254 37.0988 38.6586 37.0988Z"
      fill="#01FFC2"
    />
    <defs>
      <clipPath id="clip0_0_3591">
        <rect width="64" height="64" fill="white" />
      </clipPath>
    </defs>
  </symbol>

  <symbol
    id="telegram-icon"
    width="64"
    height="64"
    viewBox="0 0 64 64"
    fill="none"
  >
    <rect width="64" height="64" rx="20" fill="#7156FD" fill-opacity="0.2" />
    <path
      d="M17.141 32.0244L24.2117 34.3297L26.9126 42.9823C27.24 43.9292 27.0763 44.3049 28.0322 44.3049C28.7689 44.3049 29.0962 43.9548 29.5055 43.5365C29.7657 43.2701 31.3126 41.7016 33.0404 39.9504L40.3943 45.6189C41.7472 46.3976 42.7244 45.9938 43.0616 44.3075L47.8906 20.5763C48.3816 18.5092 47.1351 17.5717 45.8444 18.1856L17.4937 29.5876C15.5589 30.397 15.5712 31.5223 17.141 32.0244ZM41.2561 23.3094C42.0517 22.8065 42.7809 23.0772 42.1826 23.6313L28.5372 36.4745L28.006 42.3864L25.3207 33.7978L41.2561 23.3094Z"
      fill="#01FFC2"
    />
    <defs>
      <clipPath id="clip0_0_3594">
        <rect width="64" height="64" fill="white" />
      </clipPath>
    </defs>
  </symbol>

  <symbol
    id="facebook-icon"
    width="64"
    height="64"
    viewBox="0 0 64 64"
    fill="none"
  >
    <rect width="64" height="64" rx="20" fill="#7156FD" fill-opacity="0.2" />
    <path
      d="M27.9619 46.3456C27.9677 46.2549 27.9677 46.1639 27.9619 46.0732V32.1373H25.0996V27.2828H28.021V26.9157C28.021 25.8264 28.021 24.7371 28.021 23.6478C28.0295 22.4474 28.3561 21.2707 28.9673 20.2378C29.5435 19.2957 30.4644 18.616 31.5339 18.3434C32.1607 18.153 32.8079 18.0377 33.4618 18C35.0467 18 36.6435 18 38.1929 18V22.8545H37.8972H35.2597C35.076 22.8638 34.8937 22.8916 34.7156 22.9374C34.4705 22.9897 34.2514 23.1259 34.096 23.3226C33.9405 23.5193 33.8584 23.7641 33.8639 24.0149C33.8639 25.0568 33.8639 26.1224 33.8639 27.1762C33.8639 27.1762 33.8639 27.1762 33.8639 27.2472H38.252L37.7316 32.1373H33.8166V46.014C33.8166 46.1324 33.8166 46.2508 33.8166 46.3692L27.9619 46.3456Z"
      fill="#01FFC2"
    />
    <defs>
      <clipPath id="clip0_0_3600">
        <rect width="64" height="64" fill="white" />
      </clipPath>
    </defs>
  </symbol>

  <symbol
    id="instagram-icon"
    width="64"
    height="64"
    viewBox="0 0 64 64"
    fill="none"
  >
    <g clip-path="url(#clip0_0_3609)">
      <path
        fill-rule="evenodd"
        clip-rule="evenodd"
        d="M41.807 23.993C41.807 24.9873 41.0009 25.793 40.007 25.793C39.013 25.793 38.207 24.9873 38.207 23.993C38.207 22.9988 39.013 22.193 40.007 22.193C41.0012 22.193 41.807 22.9988 41.807 23.993ZM32 36.9999C29.2386 36.9999 27.0001 34.7614 27.0001 32C27.0001 29.2386 29.2386 27.0001 32 27.0001C34.7614 27.0001 36.9999 29.2386 36.9999 32C36.9999 34.7614 34.7614 36.9999 32 36.9999ZM32 24.2973C27.7459 24.2973 24.2973 27.7459 24.2973 32C24.2973 36.2541 27.7459 39.7027 32 39.7027C36.2541 39.7027 39.7027 36.2541 39.7027 32C39.7027 27.7459 36.2541 24.2973 32 24.2973ZM32 19.7028C36.0052 19.7028 36.4796 19.718 38.0612 19.7902C39.5237 19.857 40.318 20.1013 40.8465 20.3068C41.5466 20.5789 42.0462 20.904 42.5712 21.429C43.0962 21.9537 43.4213 22.4534 43.6934 23.1538C43.8987 23.6823 44.1432 24.4766 44.21 25.9391C44.2822 27.5209 44.2974 27.9952 44.2974 32.0005C44.2974 36.0057 44.2822 36.4801 44.21 38.0616C44.1432 39.5241 43.899 40.3184 43.6934 40.847C43.4213 41.547 43.0962 42.0467 42.5712 42.5717C42.0465 43.0967 41.5468 43.4218 40.8465 43.6939C40.318 43.8992 39.5237 44.1437 38.0612 44.2105C36.4796 44.2827 36.0052 44.2979 32 44.2979C27.9945 44.2979 27.5202 44.2827 25.9386 44.2105C24.4761 44.1437 23.6818 43.8995 23.1533 43.6939C22.4532 43.4218 21.9535 43.0967 21.4285 42.5717C20.9038 42.047 20.5784 41.5473 20.3063 40.847C20.101 40.3184 19.8566 39.5241 19.7898 38.0616C19.7176 36.4798 19.7023 36.0055 19.7023 32.0005C19.7023 27.9952 19.7176 27.5209 19.7898 25.9391C19.8566 24.4766 20.1008 23.6823 20.3063 23.1538C20.5784 22.4537 20.9035 21.954 21.4285 21.429C21.9533 20.904 22.453 20.5789 23.1533 20.3068C23.6818 20.1015 24.4761 19.857 25.9386 19.7902C27.5204 19.718 27.9948 19.7028 32 19.7028ZM32 17C27.9263 17 27.4154 17.0173 25.8155 17.0902C24.219 17.1631 23.1284 17.4167 22.1745 17.7875C21.188 18.1707 20.3516 18.6837 19.5177 19.5177C18.6837 20.3516 18.1707 21.188 17.7875 22.1745C17.4167 23.1287 17.1631 24.219 17.0902 25.8155C17.0173 27.4154 17 27.9263 17 32C17 36.0737 17.0173 36.5846 17.0902 38.1845C17.1631 39.781 17.4167 40.8713 17.7875 41.8255C18.1707 42.812 18.6837 43.6484 19.5177 44.4823C20.3516 45.3163 21.188 45.8291 22.1745 46.2125C23.1287 46.5833 24.219 46.8369 25.8155 46.9098C27.4154 46.9827 27.9263 47 32 47C36.0737 47 36.5846 46.9827 38.1845 46.9098C39.781 46.8369 40.8713 46.5833 41.8255 46.2125C42.812 45.8291 43.6484 45.3163 44.4823 44.4823C45.3163 43.6484 45.8291 42.812 46.2125 41.8255C46.5833 40.8713 46.8369 39.781 46.9098 38.1845C46.9827 36.5846 47 36.0737 47 32C47 27.9263 46.9827 27.4154 46.9098 25.8155C46.8369 24.219 46.5833 23.1287 46.2125 22.1745C45.8291 21.188 45.3163 20.3516 44.4823 19.5177C43.6484 18.6837 42.812 18.1709 41.8255 17.7875C40.8713 17.4167 39.781 17.1631 38.1845 17.0902C36.5846 17.0173 36.0737 17 32 17Z"
        fill="#01FFC2"
      />
      <rect width="64" height="64" rx="20" fill="#7156FD" fill-opacity="0.2" />
    </g>
    <defs>
      <clipPath id="clip0_0_3609">
        <rect width="64" height="64" fill="white" />
      </clipPath>
    </defs>
  </symbol>

  <symbol id="medium-icon" width="64" height="64" viewBox="0 0 64 64" fill="none">
    <rect width="64" height="64" rx="20" fill="#7156FD" fill-opacity="0.2" />
    <path
      d="M34.4271 31.9805C34.4271 37.4924 29.8952 41.9607 24.305 41.9607C18.7149 41.9607 14.1826 37.4924 14.1826 31.9805C14.1826 26.4686 18.7146 22 24.305 22C29.8955 22 34.4271 26.4686 34.4271 31.9805Z"
      fill="#01FFC2"
    />
    <path
      d="M45.5308 31.9808C45.5308 37.1691 43.2648 41.3767 40.4696 41.3767C37.6744 41.3767 35.4084 37.1691 35.4084 31.9808C35.4084 26.7926 37.674 22.585 40.4693 22.585C43.2645 22.585 45.5305 26.7912 45.5305 31.9808"
      fill="#01FFC2"
    />
    <path
      d="M50.0735 31.981C50.0735 36.6284 49.2767 40.3982 48.2935 40.3982C47.3103 40.3982 46.5138 36.6294 46.5138 31.981C46.5138 27.3325 47.3106 23.5637 48.2935 23.5637C49.2764 23.5637 50.0735 27.3322 50.0735 31.981Z"
      fill="#01FFC2"
    />
    <defs>
      <clipPath id="clip0_0_3616">
        <rect width="64" height="64" fill="white" />
      </clipPath>
    </defs>
  </symbol>

  <symbol
    id="gplay-icon"
    width="64"
    height="64"
    viewBox="0 0 64 64"
    fill="none"
  >
    <g clip-path="url(#clip0_0_3628)">
      <path
        d="M38.9009 25.5205L21.8557 16.395C20.9699 15.9208 20.0095 15.8966 19.1782 16.1997L33.6999 30.7214L38.9009 25.5205Z"
        fill="#01FFC2"
      />
      <path
        d="M45.2581 28.9231L40.3482 26.2946L34.8112 31.8315L40.3482 37.3685L45.258 34.7399C47.5806 33.4965 47.5806 30.1665 45.2581 28.9231Z"
        fill="#01FFC2"
      />
      <path
        d="M17.8491 17.0908C17.3283 17.6632 17 18.4274 17 19.3029V44.3601C17 45.2357 17.3283 45.9999 17.849 46.5723L32.5898 31.8315L17.8491 17.0908Z"
        fill="#01FFC2"
      />
      <path
        d="M19.1782 47.4647C20.0094 47.7677 20.9699 47.7436 21.8557 47.2693L38.9009 38.1438L33.7 32.9429L19.1782 47.4647Z"
        fill="#01FFC2"
      />
      <rect width="64" height="64" rx="20" fill="#7156FD" fill-opacity="0.2" />
    </g>
    <defs>
      <clipPath id="clip0_0_3628">
        <rect width="64" height="64" fill="white" />
      </clipPath>
    </defs>
  </symbol>
</svg>
